<?xml version="1.0" encoding="UTF-8" standalone="no"?>
<!DOCTYPE svg PUBLIC "-//W3C//DTD SVG 1.1//EN" "http://www.w3.org/Graphics/SVG/1.1/DTD/svg11.dtd">
<svg width="100%" height="100%" viewBox="0 0 1024 1024" version="1.1" xmlns="http://www.w3.org/2000/svg" xmlns:xlink="http://www.w3.org/1999/xlink" xml:space="preserve" xmlns:serif="http://www.serif.com/" style="fill-rule:evenodd;clip-rule:evenodd;stroke-linejoin:round;stroke-miterlimit:2;">
    <g transform="matrix(1.08059,0,0,1.08059,-83.48,-41.4845)">
        <g transform="matrix(1.48857,0,0,1.48857,-269.234,-250.246)">
            <path d="M626.922,283.852L658.499,283.823C680.841,283.766 695.816,283.231 713.333,300.146C726.851,313.2 730.772,328.899 730.091,347.019C729.897,352.188 730.405,360.154 731.62,365.271C735.638,382.011 748.881,394.976 765.703,398.637C770.17,399.611 776.229,399.984 780.751,400.276C818.404,402.715 839.272,445.258 817.261,476.37C807.182,490.616 794.602,495.717 777.328,496.207C757.678,496.765 736.407,513.037 731.664,532.419C729.043,545.906 730.302,567.081 730.368,581.414L730.346,646.073C730.303,677.272 730.62,709.5 730.26,740.594L729.505,740.602L699.044,740.598C676.929,740.579 660.249,741.359 643.005,724.811C622.593,705.223 626.855,677.788 626.809,651.998L626.8,569.386L626.922,283.852Z" style="fill:rgb(74,74,74);fill-rule:nonzero;"/>
        </g>
        <g transform="matrix(1.48857,0,0,1.48857,-269.234,-250.246)">
            <path d="M449.81,284.694C452.848,284.393 455.899,284.237 458.953,284.228C470.122,284.167 479.732,287.73 487.842,295.499C501.853,308.921 499.186,325.626 499.169,343.401L499.258,388.324C463.421,388.446 432.175,386.071 404.821,414.126C379.011,440.598 379.038,467.949 379.313,501.701C379.462,516.383 379.515,531.065 379.473,545.748L379.195,740.127C367.064,740.246 339.856,741.296 328.822,739.315C319.08,737.482 309.465,732.839 301.693,726.728C287.699,715.792 278.671,699.703 276.629,682.06C275.506,672.565 276.011,656.738 276.027,646.552L276.132,585.092L276.064,518.874C276.044,503.615 275.597,486.498 276.896,471.467C280.468,430.664 295.772,391.767 320.961,359.47C351.955,320.324 399.802,290.521 449.81,284.694Z" style="fill:rgb(128,128,128);fill-rule:nonzero;"/>
        </g>
        <g transform="matrix(1.48857,0,0,1.48857,-269.234,-250.246)">
            <path d="M461.085,398.658C462.304,398.563 463.526,398.504 464.749,398.481C491.867,398.161 519.082,398.776 546.215,398.372C554.438,398.25 564.327,397.897 572.245,399.788C582.461,402.314 591.803,407.557 599.279,414.963C616.114,431.551 614.583,450.741 614.688,472.101L614.75,530.157C614.71,553.918 617.873,576.005 599.423,594.411C592.344,601.533 583.388,606.499 573.597,608.73C562.457,611.358 537.262,610.539 524.638,610.528L449.525,610.389C440.335,610.387 430.635,609.376 422.235,605.409C405.224,597.245 393.145,579.856 392.776,560.803C392.2,529.042 392.926,497.233 392.721,465.462C392.694,461.152 392.676,451.14 394.313,447.522C394.777,457.904 394.361,458.868 398.196,468.599C403.568,482.231 415.395,492.239 428.816,497.737C442.638,503.472 458.187,503.397 471.952,497.529C484.201,492.284 493.468,483 498.398,470.605C503.345,457.879 503.035,443.709 497.537,431.212C489.836,413.512 478.379,405.39 461.085,398.658Z" style="fill:rgb(179,179,179);fill-rule:nonzero;"/>
        </g>
        <g transform="matrix(1.48857,0,0,1.48857,-269.234,-250.246)">
            <path d="M557.605,284.541C585.438,282.272 609.838,303.001 612.098,330.834C614.358,358.668 593.621,383.062 565.787,385.313C537.965,387.563 513.585,366.837 511.326,339.016C509.067,311.195 529.785,286.808 557.605,284.541Z" style="fill:rgb(74,74,74);fill-rule:nonzero;"/>
        </g>
    </g>
</svg>
